<mxfile host="app.diagrams.net" modified="2024-04-09T03:16:35.841Z" agent="Mozilla/5.0 (Windows NT 10.0; Win64; x64) AppleWebKit/537.36 (KHTML, like Gecko) Chrome/123.0.0.0 Safari/537.36" etag="slluLaSDw0xy25UMquXT" version="24.2.3" type="google">
  <diagram name="PÃ¡gina-1" id="uS717Uk7_3iBaupcVV-t">
    <mxGraphModel grid="1" page="1" gridSize="10" guides="1" tooltips="1" connect="1" arrows="1" fold="1" pageScale="1" pageWidth="1169" pageHeight="826" math="0" shadow="0">
      <root>
        <mxCell id="0" />
        <mxCell id="1" parent="0" />
        <mxCell id="j_VS4lb-982dBQ-oqToh-10" value="" style="rounded=0;whiteSpace=wrap;html=1;" vertex="1" parent="1">
          <mxGeometry x="110" y="220" width="190" height="70" as="geometry" />
        </mxCell>
        <mxCell id="FNtNbH5A4NRmHnNdlJ9b-1" style="edgeStyle=orthogonalEdgeStyle;rounded=0;orthogonalLoop=1;jettySize=auto;html=1;entryX=0.993;entryY=1.011;entryDx=0;entryDy=0;entryPerimeter=0;" edge="1" parent="1" target="FNtNbH5A4NRmHnNdlJ9b-3">
          <mxGeometry relative="1" as="geometry">
            <mxPoint x="120" y="160" as="sourcePoint" />
            <mxPoint x="300" y="160" as="targetPoint" />
            <Array as="points">
              <mxPoint x="120" y="161" />
              <mxPoint x="141" y="161" />
              <mxPoint x="141" y="160" />
            </Array>
          </mxGeometry>
        </mxCell>
        <mxCell id="FNtNbH5A4NRmHnNdlJ9b-2" style="edgeStyle=orthogonalEdgeStyle;rounded=0;orthogonalLoop=1;jettySize=auto;html=1;exitX=1;exitY=0.5;exitDx=0;exitDy=0;entryX=0.25;entryY=0;entryDx=0;entryDy=0;" edge="1" parent="1" target="j_VS4lb-982dBQ-oqToh-5">
          <mxGeometry relative="1" as="geometry">
            <mxPoint x="285" y="199.57999999999998" as="sourcePoint" />
            <mxPoint x="375" y="199.57999999999998" as="targetPoint" />
            <Array as="points">
              <mxPoint x="410" y="200" />
              <mxPoint x="410" y="200" />
            </Array>
          </mxGeometry>
        </mxCell>
        <mxCell id="FNtNbH5A4NRmHnNdlJ9b-5" style="edgeStyle=orthogonalEdgeStyle;rounded=0;orthogonalLoop=1;jettySize=auto;html=1;entryX=0;entryY=0.25;entryDx=0;entryDy=0;exitX=1;exitY=0.75;exitDx=0;exitDy=0;" edge="1" parent="1" source="j_VS4lb-982dBQ-oqToh-5" target="j_VS4lb-982dBQ-oqToh-7">
          <mxGeometry relative="1" as="geometry">
            <mxPoint x="710" y="160" as="targetPoint" />
            <mxPoint x="690" y="160" as="sourcePoint" />
          </mxGeometry>
        </mxCell>
        <mxCell id="FNtNbH5A4NRmHnNdlJ9b-3" value="abrir_mapa_interactivo()" style="text;html=1;align=center;verticalAlign=middle;resizable=0;points=[];autosize=1;strokeColor=none;fillColor=none;rotation=0;" vertex="1" parent="1">
          <mxGeometry x="130" y="130" width="150" height="30" as="geometry" />
        </mxCell>
        <mxCell id="FNtNbH5A4NRmHnNdlJ9b-6" value="guardar_ubicacion(ubicacion)" style="text;html=1;align=center;verticalAlign=middle;resizable=0;points=[];autosize=1;strokeColor=none;fillColor=none;rotation=0;" vertex="1" parent="1">
          <mxGeometry x="280" y="170" width="180" height="30" as="geometry" />
        </mxCell>
        <mxCell id="FNtNbH5A4NRmHnNdlJ9b-7" value="enviar_datos_clima(ubicacion)" style="text;html=1;align=center;verticalAlign=middle;resizable=0;points=[];autosize=1;strokeColor=none;fillColor=none;rotation=0;" vertex="1" parent="1">
          <mxGeometry x="465" y="230" width="190" height="30" as="geometry" />
        </mxCell>
        <mxCell id="j_VS4lb-982dBQ-oqToh-1" value="" style="rounded=0;whiteSpace=wrap;html=1;" vertex="1" parent="1">
          <mxGeometry x="115" y="80" width="5" height="280" as="geometry" />
        </mxCell>
        <mxCell id="j_VS4lb-982dBQ-oqToh-3" value="" style="rounded=0;whiteSpace=wrap;html=1;" vertex="1" parent="1">
          <mxGeometry x="280" y="100" width="5" height="200" as="geometry" />
        </mxCell>
        <mxCell id="j_VS4lb-982dBQ-oqToh-5" value="" style="rounded=0;whiteSpace=wrap;html=1;" vertex="1" parent="1">
          <mxGeometry x="455" y="200" width="5" height="80" as="geometry" />
        </mxCell>
        <mxCell id="j_VS4lb-982dBQ-oqToh-7" value="" style="rounded=0;whiteSpace=wrap;html=1;" vertex="1" parent="1">
          <mxGeometry x="660" y="240" width="5" height="80" as="geometry" />
        </mxCell>
        <mxCell id="j_VS4lb-982dBQ-oqToh-8" value="" style="endArrow=none;dashed=1;html=1;rounded=0;exitX=0.5;exitY=0;exitDx=0;exitDy=0;entryX=0.506;entryY=1.07;entryDx=0;entryDy=0;entryPerimeter=0;" edge="1" parent="1" source="j_VS4lb-982dBQ-oqToh-7">
          <mxGeometry width="50" height="50" relative="1" as="geometry">
            <mxPoint x="604" y="240" as="sourcePoint" />
            <mxPoint x="660.3" y="82.80000000000007" as="targetPoint" />
          </mxGeometry>
        </mxCell>
        <mxCell id="j_VS4lb-982dBQ-oqToh-9" value="" style="endArrow=none;dashed=1;html=1;rounded=0;exitX=0.5;exitY=0;exitDx=0;exitDy=0;" edge="1" parent="1" source="j_VS4lb-982dBQ-oqToh-5">
          <mxGeometry width="50" height="50" relative="1" as="geometry">
            <mxPoint x="410" y="130" as="sourcePoint" />
            <mxPoint x="457.5" y="80" as="targetPoint" />
          </mxGeometry>
        </mxCell>
        <mxCell id="j_VS4lb-982dBQ-oqToh-14" value="" style="rounded=0;whiteSpace=wrap;html=1;" vertex="1" parent="1">
          <mxGeometry x="110" y="220" width="30" height="20" as="geometry" />
        </mxCell>
        <mxCell id="j_VS4lb-982dBQ-oqToh-15" value="ALT" style="text;html=1;align=center;verticalAlign=middle;resizable=0;points=[];autosize=1;strokeColor=none;fillColor=none;" vertex="1" parent="1">
          <mxGeometry x="105" y="215" width="40" height="30" as="geometry" />
        </mxCell>
        <mxCell id="j_VS4lb-982dBQ-oqToh-19" value="mostrar_mensaje_error()" style="html=1;verticalAlign=bottom;endArrow=open;dashed=1;endSize=8;curved=0;rounded=0;entryX=0.76;entryY=0.61;entryDx=0;entryDy=0;entryPerimeter=0;" edge="1" parent="1">
          <mxGeometry relative="1" as="geometry">
            <mxPoint x="280" y="260" as="sourcePoint" />
            <mxPoint x="118.80000000000001" y="260.8" as="targetPoint" />
          </mxGeometry>
        </mxCell>
        <mxCell id="j_VS4lb-982dBQ-oqToh-20" value="&lt;span style=&quot;font-size: 12px; background-color: rgb(251, 251, 251);&quot;&gt;mostrar_datos_clima()&lt;/span&gt;" style="html=1;verticalAlign=bottom;endArrow=open;dashed=1;endSize=8;curved=0;rounded=0;exitX=0;exitY=1;exitDx=0;exitDy=0;entryX=0.8;entryY=0.858;entryDx=0;entryDy=0;entryPerimeter=0;" edge="1" parent="1" source="j_VS4lb-982dBQ-oqToh-7" target="j_VS4lb-982dBQ-oqToh-1">
          <mxGeometry relative="1" as="geometry">
            <mxPoint x="620" y="320" as="sourcePoint" />
            <mxPoint x="540" y="320" as="targetPoint" />
          </mxGeometry>
        </mxCell>
        <mxCell id="j_VS4lb-982dBQ-oqToh-21" value="Cliente" style="rounded=0;whiteSpace=wrap;html=1;" vertex="1" parent="1">
          <mxGeometry x="77.5" y="40" width="80" height="40" as="geometry" />
        </mxCell>
        <mxCell id="j_VS4lb-982dBQ-oqToh-22" value="Interfaz" style="rounded=0;whiteSpace=wrap;html=1;" vertex="1" parent="1">
          <mxGeometry x="242.5" y="40" width="80" height="40" as="geometry" />
        </mxCell>
        <mxCell id="j_VS4lb-982dBQ-oqToh-23" value="Backend" style="rounded=0;whiteSpace=wrap;html=1;" vertex="1" parent="1">
          <mxGeometry x="417.5" y="40" width="80" height="40" as="geometry" />
        </mxCell>
        <mxCell id="j_VS4lb-982dBQ-oqToh-24" value="API" style="rounded=0;whiteSpace=wrap;html=1;" vertex="1" parent="1">
          <mxGeometry x="622.5" y="40" width="80" height="40" as="geometry" />
        </mxCell>
        <mxCell id="j_VS4lb-982dBQ-oqToh-25" value="" style="endArrow=none;dashed=1;html=1;rounded=0;exitX=0.5;exitY=0;exitDx=0;exitDy=0;entryX=0.5;entryY=1;entryDx=0;entryDy=0;" edge="1" parent="1" source="j_VS4lb-982dBQ-oqToh-3" target="j_VS4lb-982dBQ-oqToh-22">
          <mxGeometry width="50" height="50" relative="1" as="geometry">
            <mxPoint x="230" y="130" as="sourcePoint" />
            <mxPoint x="280" y="80" as="targetPoint" />
          </mxGeometry>
        </mxCell>
      </root>
    </mxGraphModel>
  </diagram>
</mxfile>
